# xmcd CD database file
#
# Track frame offsets:
#	150
#	20512
#	40810
#	60142
#	79892
#	100087
#	115862
#	132072
#	148147
#	168562
#	184882
#	199290
#
# Disc length: 2987 seconds
#
# Revision: 0
# Processed by: cddbd v1.4b42PL1 Copyright (c) Steve Scherf et al.
# Submitted via: CDex 1.40Beta8
#
DISCID=a10ba90c
DTITLE=Andy White - Destination Beautiful
DYEAR=1994
DGENRE=Blues
TTITLE0=Street Scenes from my Heart
TTITLE1=Thinking of Change
TTITLE2=John
TTITLE3=Many's the Time
TTITLE4=Punks Outside the Secret Police
TTITLE5=She Doesn't Want You Any More
TTITLE6=Learning to Cry
TTITLE7=He's Out There
TTITLE8=Ciao Baby
TTITLE9=Looking for Friends
TTITLE10=I Couldn't Leave You
TTITLE11=The Government of Love
EXTD=YEAR: 1994 ID3G: 0
EXTT0=
EXTT1=
EXTT2=
EXTT3=
EXTT4=
EXTT5=
EXTT6=
EXTT7=
EXTT8=
EXTT9=
EXTT10=
EXTT11=
PLAYORDER=
